<?xml version="1.0" encoding="UTF-8" standalone="no"?>
<svg
   xmlns:dc="http://purl.org/dc/elements/1.1/"
   xmlns:cc="http://creativecommons.org/ns#"
   xmlns:rdf="http://www.w3.org/1999/02/22-rdf-syntax-ns#"
   xmlns:svg="http://www.w3.org/2000/svg"
   xmlns="http://www.w3.org/2000/svg"
   viewBox="0 0 238.48 518.76001"
   height="518.76001"
   width="238.48"
   xml:space="preserve"
   id="svg2"
   version="1.1"><metadata
     id="metadata8"><rdf:RDF><cc:Work
         rdf:about=""><dc:format>image/svg+xml</dc:format><dc:type
           rdf:resource="http://purl.org/dc/dcmitype/StillImage" /></cc:Work></rdf:RDF></metadata><defs
     id="defs6" /><g
     transform="matrix(1.3333333,0,0,-1.3333333,0,518.76)"
     id="g10"><g
       transform="scale(0.1)"
       id="g12"><path
         id="path14"
         style="fill:#ed1d24;fill-opacity:1;fill-rule:nonzero;stroke:none"
         d="m 904.512,3840.71 c 129.748,38.8 266.238,56.41 401.538,47.81 70.29,-4.46 342.59,-21.71 347.95,-122.77 0.95,-17.84 -8.99,-35.02 -22.84,-46.32 -13.84,-11.29 -31.18,-17.44 -48.56,-21.58 -85.69,-20.4 -173.89,3.42 -260.31,-8.28 -82.77,-11.19 -164.12,-46.14 -238.27,-83.22 -145.442,-72.73 -272.707,-178.62 -381.18,-299 -150.723,-167.28 -188.91,-395.11 -196.067,-611.42 -3.007,-90.98 7.618,-181.11 33.29,-268.55 51.179,-174.32 157.179,-332.89 300.699,-444.63 224.748,-174.98 532.738,-233.27 809.028,-164.05 27.35,6.85 55.49,14.93 83.31,10.35 27.83,-4.59 55.23,-26.36 55.53,-54.56 0.31,-29.4 -26.83,-50.86 -51.8,-66.39 -91.01,-56.58 -190.21,-99.9 -293.5,-128.41 -40.83,-11.27 -103.29,-10.25 -133.51,-41.41 -28.59,-29.47 -24.73,-79.58 -11.68,-115.22 19.01,-51.92 105.07,-36.72 145.63,-36.93 79.67,-0.42 202.22,4.96 271.03,-43.31 24.41,-17.13 40.22,-50.5 27.72,-77.59 -6.98,-15.12 -21.26,-25.58 -36,-33.34 -74.94,-39.41 -173.18,-35.08 -255.38,-35.35 -50.92,-0.16 -155.78,14.08 -197.51,-22.75 -10.59,-9.35 -16.93,-22.61 -21.36,-36.03 -23.04,-69.94 -8.56,-151.928 -6.56,-224.26 2.42,-87.32 3.16,-174.691 2.23,-262.039 -1.3,-122.27 -5.88,-244.512 -13.74,-366.531 -4.91,-76.34 9.52,-233.8714 -73.31,-277.23078 -15.17,-7.968751 -34,-10.80078 -49.46,-3.41016 -13.2,6.31254 -22.15,18.97264 -29.24,31.76954 -62.12,112.2034 -43.16,288.9804 -46.74,413.1914 -3.95,137.27 -3.36,274.66 1.76,411.879 3.33,88.891 43.12,229.901 -22.269,304.371 -23.996,27.27 -63.964,34 -100.242,32.06 -120.023,-6.42 -250.73,-27.13 -363.082,29.55 -21.617,10.91 -43.211,27.97 -46.605,51.95 -3.164,22.37 10.914,44.03 28.644,58.03 108.797,85.9 320.567,-27.35 403.496,103.35 57.575,90.74 -46.668,128.45 -114.199,144.08 -170.5,39.47 -324.512,134.49 -449.664,255.3 -152.789,147.5 -265.1367,337.96 -318.3515,543.68 -7.918,30.6 -14.5156,61.54 -19.7109,92.72 -14.480506,86.91 -18.65629,175.51 -12.42972,263.4 12.84372,181.31 67.90622,359.16 159.98012,515.88 93.246,158.73 220.942,296.58 370.664,403.5 111.844,79.88 238.258,141.99 371.071,181.71" /></g></g></svg>